<?xml version="1.0" standalone="no"?>
<!DOCTYPE svg PUBLIC "-//W3C//DTD SVG 20010904//EN"
 "http://www.w3.org/TR/2001/REC-SVG-20010904/DTD/svg10.dtd">
<svg version="1.0" xmlns="http://www.w3.org/2000/svg"
 width="500.000000pt" height="500.000000pt" viewBox="0 0 500.000000 500.000000"
 preserveAspectRatio="xMidYMid meet">

<g transform="translate(0.000000,500.000000) scale(0.100000,-0.100000)"
fill="#000000" stroke="none">
<path d="M1432 2788 l3 -73 35 -1 35 -2 -33 5 -34 4 4 70 c2 38 -1 69 -5 69
-4 0 -7 -33 -5 -72z"/>
<path d="M1152 2795 c1 -28 4 -41 9 -33 6 10 12 8 23 -7 14 -19 15 -16 15 35
-1 30 -3 47 -6 38 -5 -22 -23 -24 -23 -3 0 8 -5 15 -10 15 -6 0 -9 -20 -8 -45z"/>
<path d="M1227 2834 c-13 -13 -7 -71 8 -84 17 -14 35 -5 35 18 -1 16 -2 15
-14 -1 -12 -16 -14 -16 -20 -1 -9 23 -7 64 2 64 4 0 14 -6 21 -12 11 -11 13
-10 9 2 -5 16 -30 25 -41 14z"/>
<path d="M1290 2798 c0 -27 5 -48 10 -48 13 0 13 60 0 80 -7 11 -10 2 -10 -32z"/>
<path d="M1327 2832 c6 -4 13 -25 16 -47 l4 -40 1 42 c2 30 7 43 20 46 9 3 1
5 -18 6 -19 0 -30 -3 -23 -7z"/>
<path d="M1382 2773 l-2 -52 -37 -4 -38 -4 38 -1 c44 -2 50 7 44 69 l-4 44 -1
-52z"/>
<path d="M1870 2680 l0 -130 25 0 c23 0 24 2 27 81 l3 82 64 -82 c39 -49 71
-81 82 -81 18 0 19 10 19 131 0 130 0 130 -22 127 -22 -3 -23 -8 -23 -86 0
-45 -1 -82 -2 -82 -1 0 -32 38 -68 85 -42 54 -74 85 -86 85 -18 0 -19 -9 -19
-130z"/>
<path d="M2211 2791 c-13 -24 -91 -224 -91 -233 0 -5 11 -8 24 -8 18 0 27 8
35 30 9 28 13 30 60 30 46 0 52 -3 66 -30 11 -21 23 -30 40 -30 l23 0 -40 103
c-22 56 -45 114 -50 130 -12 32 -52 37 -67 8z m52 -93 l16 -48 -36 0 c-32 0
-35 2 -29 25 9 36 26 78 30 74 2 -2 10 -25 19 -51z"/>
<path d="M2454 2796 c-48 -21 -74 -62 -74 -113 0 -83 53 -133 140 -133 67 0
80 12 80 75 l0 55 -40 0 c-33 0 -40 -3 -40 -20 0 -14 7 -20 21 -20 15 0 20 -5
17 -22 -4 -31 -64 -37 -97 -11 -34 28 -39 90 -10 127 21 27 25 28 80 22 62 -6
82 5 56 31 -21 21 -95 26 -133 9z"/>
<path d="M2695 2743 c-15 -37 -38 -96 -51 -130 l-24 -63 26 0 c19 0 29 7 37
30 11 28 15 30 63 30 49 0 53 -2 63 -30 8 -23 16 -30 36 -30 31 0 33 -10 -28
145 -38 97 -46 110 -69 113 -23 3 -28 -3 -53 -65z m84 -80 c1 -8 -12 -13 -35
-13 -25 0 -34 4 -30 13 2 6 10 30 17 51 l13 39 17 -39 c10 -21 18 -45 18 -51z"/>
<path d="M2900 2681 l0 -131 25 0 c23 0 25 3 25 50 0 36 4 50 14 50 8 0 28
-22 46 -50 l32 -50 63 0 c35 0 71 3 80 6 32 12 45 59 45 159 0 95 0 95 -25 95
-25 0 -25 -1 -25 -84 0 -101 -11 -136 -41 -136 -12 0 -27 -7 -33 -16 -10 -13
-16 -9 -42 33 l-31 49 24 28 c29 34 29 58 0 91 -19 23 -33 28 -90 32 l-67 6 0
-132z m110 71 c26 -21 18 -49 -17 -63 -39 -15 -43 -11 -43 36 0 37 3 45 19 45
10 0 29 -8 41 -18z"/>
<path d="M3280 2709 c0 -98 1 -101 29 -130 24 -24 38 -29 76 -29 38 0 52 5 76
29 28 29 29 32 29 130 l0 101 -25 0 c-25 0 -25 -1 -25 -90 0 -77 -3 -93 -20
-110 -24 -24 -38 -25 -68 -4 -20 14 -22 23 -22 110 0 94 0 94 -25 94 l-25 0 0
-101z"/>
<path d="M3540 2680 l0 -130 25 0 c23 0 24 2 27 81 l3 82 64 -82 c39 -49 71
-81 82 -81 18 0 19 10 19 131 0 130 0 130 -22 127 -22 -3 -23 -8 -23 -86 0
-45 -1 -82 -2 -82 -1 0 -32 38 -68 85 -42 54 -74 85 -86 85 -18 0 -19 -9 -19
-130z"/>
<path d="M3887 2803 c-6 -10 -97 -243 -97 -249 0 -2 11 -4 26 -4 19 0 28 7 35
30 10 28 14 30 63 30 48 0 52 -2 63 -30 9 -23 18 -30 37 -30 14 0 26 1 26 3 0
1 -22 58 -49 127 -43 110 -52 125 -74 128 -14 2 -27 0 -30 -5z m57 -131 c7
-20 4 -22 -28 -22 -20 0 -36 1 -36 3 0 2 7 25 16 51 l17 49 12 -30 c7 -16 16
-39 19 -51z"/>
<path d="M1530 2780 c0 -5 14 -10 30 -10 17 0 30 5 30 10 0 6 -13 10 -30 10
-16 0 -30 -4 -30 -10z"/>
<path d="M1575 2740 c-3 -6 0 -10 7 -10 9 0 9 -3 -2 -10 -11 -7 2 -10 43 -10
31 0 57 4 57 9 0 5 -8 7 -19 4 -10 -3 -32 2 -49 11 -19 10 -33 12 -37 6z"/>
<path d="M1131 2639 c-1 -37 38 -128 65 -150 9 -7 1 10 -16 38 -17 28 -35 72
-39 99 -8 44 -9 45 -10 13z"/>
<path d="M1550 2659 c0 -5 5 -7 10 -4 6 3 10 8 10 11 0 2 -4 4 -10 4 -5 0 -10
-5 -10 -11z"/>
<path d="M1378 2594 c3 -48 0 -69 -10 -75 -10 -7 -9 -9 5 -9 15 0 17 10 17 75
0 41 -3 75 -7 75 -5 0 -6 -30 -5 -66z"/>
<path d="M1430 2591 c0 -39 3 -72 8 -74 4 -3 7 28 7 69 0 41 -3 74 -7 74 -5 0
-8 -31 -8 -69z"/>
<path d="M1490 2651 c0 -6 5 -13 10 -16 6 -3 10 1 10 9 0 9 -4 16 -10 16 -5 0
-10 -4 -10 -9z"/>
<path d="M1590 2643 c0 -7 7 -13 15 -13 8 0 15 6 15 13 0 8 -7 14 -15 14 -8 0
-15 -6 -15 -14z"/>
<path d="M1266 2631 c-3 -5 1 -14 9 -21 13 -10 15 -9 15 9 0 21 -14 28 -24 12z"/>
<path d="M1672 2610 c0 -14 2 -19 5 -12 2 6 2 18 0 25 -3 6 -5 1 -5 -13z"/>
<path d="M1166 2605 c-6 -17 16 -31 33 -21 13 9 2 36 -14 36 -7 0 -16 -7 -19
-15z"/>
<path d="M1256 2583 c4 -19 2 -39 -5 -47 -9 -11 -7 -15 11 -20 43 -11 83 -6
94 12 8 13 8 20 -2 29 -10 10 -14 10 -17 0 -3 -7 -6 -4 -6 6 -1 10 -9 18 -21
18 -37 3 -41 4 -50 19 -7 10 -8 5 -4 -17z m44 -23 c0 -5 -4 -10 -9 -10 -6 0
-13 5 -16 10 -3 6 1 10 9 10 9 0 16 -4 16 -10z"/>
<path d="M1468 2533 c7 -3 16 -2 19 1 4 3 -2 6 -13 5 -11 0 -14 -3 -6 -6z"/>
<path d="M1608 2533 c7 -3 16 -2 19 1 4 3 -2 6 -13 5 -11 0 -14 -3 -6 -6z"/>
<path d="M1630 2520 c-8 -5 -12 -12 -9 -15 4 -3 12 1 19 10 14 17 11 19 -10 5z"/>
<path d="M1518 2513 c12 -2 30 -2 40 0 9 3 -1 5 -23 4 -22 0 -30 -2 -17 -4z"/>
<path d="M1400 2450 c0 -5 5 -10 10 -10 6 0 10 5 10 10 0 6 -4 10 -10 10 -5 0
-10 -4 -10 -10z"/>
<path d="M1569 2443 c-13 -16 -12 -17 4 -4 9 7 17 15 17 17 0 8 -8 3 -21 -13z"/>
<path d="M1059 2370 l34 -29 -44 -3 -44 -3 73 -27 c40 -16 75 -28 78 -28 2 0
4 9 4 19 0 25 12 32 30 20 13 -7 12 -9 -2 -9 -14 0 -18 -9 -18 -44 l0 -44 53
-14 c69 -17 314 -15 382 4 44 13 49 17 50 42 0 25 6 30 55 45 30 10 64 23 75
29 18 10 15 11 -19 12 l-39 0 24 27 c13 14 17 23 9 20 -85 -34 -132 -57 -117
-57 9 0 17 -4 17 -10 0 -15 -40 -12 -40 3 0 6 -7 3 -16 -8 -14 -19 -27 -20
-195 -20 -125 0 -182 4 -187 12 -4 6 -50 29 -102 52 -93 39 -94 39 -61 11z
m261 -100 c0 -5 -2 -10 -4 -10 -3 0 -8 5 -11 10 -3 6 -1 10 4 10 6 0 11 -4 11
-10z m77 -6 c-3 -3 -12 -4 -19 -1 -8 3 -5 6 6 6 11 1 17 -2 13 -5z m-174 -31
c-7 -2 -19 -2 -25 0 -7 3 -2 5 12 5 14 0 19 -2 13 -5z m87 -13 c24 -8 24 -8
-5 -8 -16 0 -39 3 -50 8 -18 8 -18 9 5 8 14 0 36 -4 50 -8z m218 -7 c-10 -2
-26 -2 -35 0 -10 3 -2 5 17 5 19 0 27 -2 18 -5z"/>
</g>
</svg>
